# xmcd
#
# Track frame offsets: 
#        182
#        11190
#        18562
#        26532
#        33920
#        43217
#        47440
#        54907
#        62637
#        73055
#        87847
#        100700
#        111002
#        123912
#        136420
#        142437
#        150245
#        154722
#        161510
#        168347
#        178905
#        187260
#        198640
#        209222
#        221475
#        231150
#        240637
#        248975
#
# Disc length: 3465 seconds
#
# Revision: 1
# Processed by: cddbd v1.5.2PL0 Copyright (c) Steve Scherf et al.
# Submitted via: ExactAudioCopy v1.0b3
#
DISCID=950d871c
DTITLE=Merle Travis - Unissued Radio Shows 1944-1948
DYEAR=1994
DGENRE=Country
TTITLE0=Nine Pound Hammer
TTITLE1=Cannonball Rag
TTITLE2=Pigmeat Strut
TTITLE3=I'm Gonna Ride That Gospel Train
TTITLE4=Our Little Home In the Country
TTITLE5=Osage Stomp
TTITLE6=Kansas City Blues
TTITLE7=I'm S-A-V-E-D
TTITLE8=When You And I Were Young, Maggie
TTITLE9=Ida Sweet As Apple Cider-Sheik Of Araby
TTITLE10=Porky's Boogie
TTITLE11=Divorce Me C.O.D.
TTITLE12=Ain't That A Cryin' Shame
TTITLE13=Churchy Time
TTITLE14=Fuller
TTITLE15=Freight Train Blues
TTITLE16=Darktown Strutters' Ball
TTITLE17=Go 'Long Mule
TTITLE18=Sugar Gourd Full Of Whiskey
TTITLE19=Dapper Dan
TTITLE20=No Vacancy
TTITLE21=How Long Has That Train Been Gone
TTITLE22=Boogie Woogie Cowboy
TTITLE23=The Snitzelbob Song
TTITLE24=Milk 'Em In The Morning Blues
TTITLE25=When My Baby Does Her Double-Talk To Me
TTITLE26=Little David Play On Your Harp
TTITLE27=Hominy Grits-Bugle Call Rag
EXTD=
EXTT0=
EXTT1=
EXTT2=
EXTT3=
EXTT4=
EXTT5=
EXTT6=
EXTT7=
EXTT8=
EXTT9=
EXTT10=
EXTT11=
EXTT12=
EXTT13=
EXTT14=
EXTT15=
EXTT16=
EXTT17=
EXTT18=
EXTT19=
EXTT20=
EXTT21=
EXTT22=
EXTT23=
EXTT24=
EXTT25=
EXTT26=
EXTT27=
PLAYORDER=
